<svg xmlns="http://www.w3.org/2000/svg" xmlns:xlink="http://www.w3.org/1999/xlink" width="16px" height="16px">
<path fill-rule="evenodd"  fill="rgb(0, 0, 0)"
 d="M9.078,8.000 L15.755,1.310 C16.054,1.010 16.054,0.524 15.755,0.225 C15.456,-0.075 14.971,-0.075 14.672,0.225 L7.995,6.915 L1.318,0.226 C1.018,-0.074 0.534,-0.074 0.234,0.226 C-0.065,0.525 -0.065,1.011 0.234,1.311 L6.912,8.001 L0.235,14.690 C-0.064,14.989 -0.064,15.475 0.235,15.775 C0.385,15.924 0.580,16.000 0.777,16.000 C0.973,16.000 1.168,15.925 1.318,15.775 L7.995,9.085 L14.672,15.775 C14.822,15.924 15.017,16.000 15.213,16.000 C15.409,16.000 15.605,15.925 15.754,15.775 C16.053,15.475 16.053,14.989 15.754,14.690 L9.078,8.000 Z"/>
</svg>