<svg xmlns="http://www.w3.org/2000/svg" xmlns:xlink="http://www.w3.org/1999/xlink" width="19px" height="14px">
<path fill-rule="evenodd"  fill="rgb(183, 183, 183)"
 d="M19.000,9.579 L19.000,11.136 C19.000,12.716 17.668,14.001 16.031,14.001 L15.400,14.001 L3.600,14.001 L2.969,14.001 C1.332,14.001 -0.000,12.716 -0.000,11.136 L-0.000,2.865 C-0.000,1.285 1.332,0.000 2.969,0.000 L16.031,0.000 C17.668,0.000 19.000,1.285 19.000,2.865 L19.000,6.981 C19.000,7.377 18.668,7.697 18.258,7.697 C17.848,7.697 17.516,7.377 17.516,6.981 L17.516,3.016 L11.068,6.885 C10.584,7.175 10.042,7.320 9.500,7.320 C8.958,7.320 8.416,7.175 7.932,6.885 L1.484,3.016 L1.484,11.136 C1.484,11.926 2.150,12.568 2.969,12.568 L3.600,12.568 L15.400,12.568 L16.031,12.568 C16.850,12.568 17.516,11.926 17.516,11.136 L17.516,9.579 L19.000,9.579 ZM8.716,5.669 C9.200,5.959 9.800,5.959 10.284,5.669 L16.896,1.702 C16.652,1.532 16.354,1.432 16.031,1.432 L2.969,1.432 C2.646,1.432 2.348,1.532 2.104,1.702 L8.716,5.669 Z"/>
</svg>