<svg 
 xmlns="http://www.w3.org/2000/svg"
 xmlns:xlink="http://www.w3.org/1999/xlink"
 width="17px" height="20px">
<path fill-rule="evenodd"  fill="rgb(183, 183, 183)"
 d="M3.491,13.516 C3.491,13.084 3.831,12.734 4.250,12.734 C4.669,12.734 5.009,13.084 5.009,13.516 C5.009,13.947 4.669,14.297 4.250,14.297 C3.831,14.297 3.491,13.947 3.491,13.516 ZM6.337,13.516 C6.337,13.084 6.677,12.734 7.096,12.734 C7.515,12.734 7.855,13.084 7.855,13.516 C7.855,13.947 7.515,14.297 7.096,14.297 C6.677,14.297 6.337,13.947 6.337,13.516 ZM9.183,13.516 C9.183,13.084 9.523,12.734 9.942,12.734 C10.361,12.734 10.701,13.084 10.701,13.516 C10.701,13.947 10.361,14.297 9.942,14.297 C9.523,14.297 9.183,13.947 9.183,13.516 ZM12.067,13.516 C12.067,13.084 12.407,12.734 12.826,12.734 C13.245,12.734 13.585,13.084 13.585,13.516 C13.585,13.947 13.245,14.297 12.826,14.297 C12.407,14.297 12.067,13.947 12.067,13.516 ZM16.241,14.141 C15.822,14.141 15.482,13.791 15.482,13.359 L15.482,10.469 C15.482,9.607 14.801,8.906 13.964,8.906 L3.036,8.906 C2.199,8.906 1.518,9.607 1.518,10.469 L1.518,16.875 C1.518,17.737 2.199,18.438 3.036,18.438 L13.964,18.438 C14.801,18.438 15.482,17.737 15.482,16.875 C15.482,16.443 15.822,16.094 16.241,16.094 C16.660,16.094 17.000,16.443 17.000,16.875 C17.000,18.598 15.638,20.000 13.964,20.000 L3.036,20.000 C1.362,20.000 -0.000,18.598 -0.000,16.875 L-0.000,10.469 C-0.000,8.746 1.362,7.344 3.036,7.344 L3.945,7.344 L3.945,4.588 C3.945,2.058 5.988,-0.000 8.499,-0.000 C11.009,-0.000 13.052,2.058 13.052,4.588 L13.052,7.344 L13.964,7.344 C15.638,7.344 17.000,8.746 17.000,10.469 L17.000,13.359 C17.000,13.791 16.660,14.141 16.241,14.141 ZM11.534,4.588 C11.534,2.920 10.173,1.563 8.499,1.563 C6.825,1.563 5.463,2.920 5.463,4.588 L5.463,7.344 L11.534,7.344 L11.534,4.588 Z"/>
</svg>